<svg xmlns="http://www.w3.org/2000/svg" width="1024" height="1024" viewBox="0 0 1024 1024">
<g>
<path d="M 532.52 872.55 C529.04,876.24 526.19,876.83 522.02,874.72 C517.63,872.50 516.82,869.54 517.42,858.00 C519.17,824.53 546.21,687.92 580.43,539.74 C584.60,521.72 588.00,506.49 588.00,505.91 C588.00,505.32 583.16,509.35 577.25,514.85 C552.96,537.46 535.54,546.96 520.54,545.76 C502.34,544.29 490.17,527.42 488.27,501.00 C487.98,496.88 487.39,492.84 486.96,492.04 C486.43,491.04 481.20,500.64 470.63,522.04 C454.58,554.53 450.32,561.20 443.63,564.37 C439.03,566.55 435.53,566.42 431.05,563.91 C421.13,558.33 416.77,543.03 416.76,513.75 C416.76,504.54 416.39,497.00 415.96,497.00 C413.53,497.00 381.31,550.73 363.07,585.20 C356.79,597.06 351.74,603.00 347.92,603.00 C345.05,603.00 340.24,600.32 339.03,598.06 C332.96,586.70 351.81,510.57 375.20,452.00 C377.95,445.12 381.10,438.71 382.21,437.75 C385.25,435.11 392.46,435.38 394.44,438.22 C396.87,441.68 396.33,445.32 391.87,455.80 C386.28,468.92 378.26,491.33 372.65,509.50 C367.55,526.01 360.66,551.99 361.23,552.56 C361.42,552.76 364.46,547.87 367.98,541.71 C383.10,515.18 412.44,471.16 417.80,466.94 C423.43,462.52 432.73,466.00 433.19,472.70 C433.30,474.24 433.43,489.00 433.48,505.50 C433.57,529.89 433.88,536.46 435.18,540.66 C436.06,543.50 437.10,546.35 437.49,546.99 C438.66,548.88 442.51,542.28 451.64,522.68 C466.99,489.74 477.18,471.78 484.04,465.58 C487.35,462.59 488.75,462.00 492.50,462.00 C497.42,462.00 500.24,463.98 502.16,468.79 C502.76,470.28 503.59,478.92 504.01,488.00 C504.80,505.32 506.56,514.62 510.30,521.30 C518.60,536.14 538.19,529.25 566.70,501.46 L 579.50 488.99 L 567.46 489.62 C555.75,490.24 555.34,490.19 552.76,487.88 C551.30,486.57 549.99,484.60 549.85,483.50 C549.42,480.18 550.91,476.12 552.94,475.03 C554.00,474.47 562.88,473.33 572.68,472.50 C596.88,470.47 596.86,470.47 597.60,467.21 C601.02,452.19 619.73,379.43 622.86,369.00 C639.46,313.65 655.43,278.40 668.37,268.53 C672.63,265.28 678.76,264.25 683.11,266.04 C692.71,270.02 692.31,291.96 682.09,322.13 C671.29,354.04 651.87,394.18 627.98,434.00 C620.40,446.63 618.98,449.75 616.95,458.23 C615.67,463.57 614.86,468.20 615.17,468.50 C615.47,468.80 628.14,467.60 643.33,465.82 L 670.94 462.60 L 673.47 464.97 C678.36,469.57 676.05,477.13 669.21,478.90 C667.17,479.43 653.15,481.26 638.06,482.96 C622.97,484.66 610.50,486.16 610.36,486.31 C609.72,486.95 586.72,586.04 578.40,624.00 C555.62,727.96 533.67,840.04 535.52,843.03 C535.85,843.56 536.74,844.00 537.50,844.00 C539.53,844.00 542.00,848.01 542.00,851.29 C542.00,855.62 536.18,868.66 532.52,872.55 ZM 636.01 384.35 C636.03,386.27 640.85,377.27 647.71,362.50 C660.32,335.36 667.42,315.33 672.43,292.75 C673.60,287.45 671.28,290.09 666.26,299.75 C660.89,310.11 653.93,327.06 648.32,343.50 C644.13,355.80 636.00,382.77 636.01,384.35 Z" fill="rgb(0,0,0)"/>
<path d="M 0.00 512.00 L 0.00 0.00 L 512.00 0.00 L 1024.00 0.00 L 1024.00 512.00 L 1024.00 1024.00 L 512.00 1024.00 L 0.00 1024.00 L 0.00 512.00 ZM 532.52 872.55 C536.18,868.66 542.00,855.62 542.00,851.29 C542.00,848.01 539.53,844.00 537.50,844.00 C536.74,844.00 535.85,843.56 535.52,843.03 C533.67,840.04 555.62,727.96 578.40,624.00 C586.72,586.04 609.72,486.95 610.36,486.31 C610.50,486.16 622.97,484.66 638.06,482.96 C653.15,481.26 667.17,479.43 669.21,478.90 C676.05,477.13 678.36,469.57 673.47,464.97 L 670.94 462.60 L 643.33 465.82 C628.14,467.60 615.47,468.80 615.17,468.50 C614.86,468.20 615.67,463.57 616.95,458.23 C618.98,449.75 620.40,446.63 627.98,434.00 C651.87,394.18 671.29,354.04 682.09,322.13 C692.31,291.96 692.71,270.02 683.11,266.04 C678.76,264.25 672.63,265.28 668.37,268.53 C655.43,278.40 639.46,313.65 622.86,369.00 C619.73,379.43 601.02,452.19 597.60,467.21 C596.86,470.47 596.88,470.47 572.68,472.50 C562.88,473.33 554.00,474.47 552.94,475.03 C550.91,476.12 549.42,480.18 549.85,483.50 C549.99,484.60 551.30,486.57 552.76,487.88 C555.34,490.19 555.75,490.24 567.46,489.62 L 579.50 488.99 L 566.70 501.46 C538.19,529.25 518.60,536.14 510.30,521.30 C506.56,514.62 504.80,505.32 504.01,488.00 C503.59,478.92 502.76,470.28 502.16,468.79 C500.24,463.98 497.42,462.00 492.50,462.00 C488.75,462.00 487.35,462.59 484.04,465.58 C477.18,471.78 466.99,489.74 451.64,522.68 C442.51,542.28 438.66,548.88 437.49,546.99 C437.10,546.35 436.06,543.50 435.18,540.66 C433.88,536.46 433.57,529.89 433.48,505.50 C433.43,489.00 433.30,474.24 433.19,472.70 C432.73,466.00 423.43,462.52 417.80,466.94 C412.44,471.16 383.10,515.18 367.98,541.71 C364.46,547.87 361.42,552.76 361.23,552.56 C360.66,551.99 367.55,526.01 372.65,509.50 C378.26,491.33 386.28,468.92 391.87,455.80 C396.33,445.32 396.87,441.68 394.44,438.22 C392.46,435.38 385.25,435.11 382.21,437.75 C381.10,438.71 377.95,445.12 375.20,452.00 C351.81,510.57 332.96,586.70 339.03,598.06 C340.24,600.32 345.05,603.00 347.92,603.00 C351.74,603.00 356.79,597.06 363.07,585.20 C381.31,550.73 413.53,497.00 415.96,497.00 C416.39,497.00 416.76,504.54 416.76,513.75 C416.77,543.03 421.13,558.33 431.05,563.91 C435.53,566.42 439.03,566.55 443.63,564.37 C450.32,561.20 454.58,554.53 470.63,522.04 C481.20,500.64 486.43,491.04 486.96,492.04 C487.39,492.84 487.98,496.88 488.27,501.00 C490.17,527.42 502.34,544.29 520.54,545.76 C535.54,546.96 552.96,537.46 577.25,514.85 C583.16,509.35 588.00,505.32 588.00,505.91 C588.00,506.49 584.60,521.72 580.43,539.74 C546.21,687.92 519.17,824.53 517.42,858.00 C516.82,869.54 517.63,872.50 522.02,874.72 C526.19,876.83 529.04,876.24 532.52,872.55 ZM 636.01 384.35 C636.00,382.77 644.13,355.80 648.32,343.50 C653.93,327.06 660.89,310.11 666.26,299.75 C671.28,290.09 673.60,287.45 672.43,292.75 C667.42,315.33 660.32,335.36 647.71,362.50 C640.85,377.27 636.03,386.27 636.01,384.35 Z" fill="rgb(254,254,254)"/>
</g>
</svg>